<?xml version="1.0" encoding="UTF-8"?>
<svg width="144px" height="112px" viewBox="0 0 144 112" version="1.1" xmlns="http://www.w3.org/2000/svg" xmlns:xlink="http://www.w3.org/1999/xlink">
    <!-- Generator: Sketch 60.1 (88133) - https://sketch.com -->
    <title>Bubbles</title>
    <desc>Created with Sketch.</desc>
    <g id="Design-2020-" stroke="none" stroke-width="1" fill="none" fill-rule="evenodd">
        <g id="ES-Homepage-2020-V4-1B-(XXL)" transform="translate(-100.000000, -4100.000000)">
            <g id="Footer" transform="translate(-222.000000, 3632.000000)">
                <g id="Callout" transform="translate(270.000000, 387.000000)">
                    <g id="V2">
                        <g id="Bubbles" transform="translate(52.000000, 81.000000)">
                            <path d="M89.2107319,26.1212995 C88.5595031,19.2133647 87.6782865,13.4579114 85.4748991,9.55755669 C81.4238273,1.56244862 70.7510075,0.382486556 55.4006151,0.022696515 C40.2307546,-0.0814576978 23.075217,0.0851211898 12.8355698,2.43435847 C7.65669289,3.70880571 4.12404486,5.61886505 2.19785335,8.81897779 C0.228776886,11.9900834 -0.133843062,16.4510728 0.037696751,22.1588594 C0.524129709,33.5830838 1.75015519,46.691078 5.31980878,54.8475064 C8.94600826,63.1515148 15.6281065,67.0342278 27.1598359,68.5198672 C29.1169806,74.3248531 33.5379351,81.4500869 43.5221748,83.333514 C43.5221748,83.333514 40.3640784,76.5794356 40.6630626,69.5074663 C50.2784571,69.9061021 61.023213,69.8117866 70.0470372,69.0340226 C76.6215772,68.2920511 82.0029471,66.888853 85.2326337,63.5951032 C88.5515487,60.3461364 89.7187803,55.2066179 89.9280173,48.0237091 C90.1616366,40.9732832 89.8014375,32.9710505 89.2107319,26.1212995" id="Fill-1" fill="#277FC0"></path>
                            <path d="M143.92793,46.2771209 C143.718692,39.0093061 142.551633,33.8090356 139.232718,30.5216641 C136.00303,27.1889804 130.621659,25.7691957 124.046945,25.0184536 C110.653002,23.8502893 93.4637401,24.2038624 81.8111346,25.4547559 C69.8764913,26.8941073 63.0140325,30.8125895 59.3198733,39.3726625 C55.749873,47.6255044 54.5238472,60.8884426 54.03776,72.4477077 C53.8660472,78.2229636 54.2286672,82.7366844 56.1977442,85.9452742 C58.1241091,89.1830425 61.6565851,91.1156798 66.8356361,92.4051917 C76.3837658,94.6217173 91.9454741,94.9181352 106.303291,94.8625246 C108.543338,102.793546 104.049928,111.979409 104.049928,111.979409 C116.390595,109.753959 120.233468,99.8721059 121.428022,94.1818106 C130.337027,93.225447 136.587857,90.9629225 139.47481,85.1979649 C141.678198,81.2515058 142.559588,75.4280199 143.210817,68.4384293 C143.801523,61.5077104 144.161722,53.4108868 143.92793,46.2771209" id="Fill-4" fill="#FFFFFF"></path>
                        </g>
                    </g>
                </g>
            </g>
        </g>
    </g>
</svg>